<?xml version="1.0" encoding="UTF-8"?>
<svg width="823px" height="781px" viewBox="0 0 823 781" version="1.1" xmlns="http://www.w3.org/2000/svg" xmlns:xlink="http://www.w3.org/1999/xlink" style="background: #FFFFFF;">
    <!-- Generator: Sketch 49.3 (51167) - http://www.bohemiancoding.com/sketch -->
    <title>Artboard Copy 6</title>
    <desc>Created with Sketch.</desc>
    <defs>
        <rect id="path-1" x="0" y="0" width="29.1176472" height="179"></rect>
        <rect id="path-2" x="29.1176472" y="0" width="29.1176472" height="179"></rect>
        <rect id="path-3" x="58.2352943" y="0" width="29.1176472" height="179"></rect>
        <rect id="path-4" x="87.3529415" y="0" width="29.1176472" height="179"></rect>
        <rect id="path-5" x="116.470589" y="0" width="29.1176472" height="179"></rect>
        <rect id="path-6" x="145.588236" y="0" width="29.1176472" height="179"></rect>
        <rect id="path-7" x="174.705883" y="0" width="29.1176472" height="179"></rect>
        <rect id="path-8" x="203.82353" y="0" width="29.1176472" height="179"></rect>
        <rect id="path-9" x="232.941177" y="0" width="29.1176472" height="179"></rect>
        <rect id="path-10" x="262.058825" y="0" width="29.1176472" height="179"></rect>
        <rect id="path-11" x="291.176472" y="0" width="29.1176472" height="179"></rect>
        <rect id="path-12" x="320.294119" y="0" width="29.1176472" height="179"></rect>
        <rect id="path-13" x="349.411766" y="0" width="29.1176472" height="179"></rect>
        <rect id="path-14" x="378.529413" y="0" width="29.1176472" height="179"></rect>
        <rect id="path-15" x="407.64706" y="0" width="29.1176472" height="179"></rect>
        <rect id="path-16" x="436.764708" y="0" width="29.1176472" height="179"></rect>
        <rect id="path-17" x="465.882355" y="0" width="29.1176472" height="179"></rect>
        <polygon id="path-18" points="0 0 248 0 248 277 0 277"></polygon>
        <rect id="path-20" x="0" y="0" width="15" height="277"></rect>
        <rect id="path-21" x="15" y="0" width="15" height="277"></rect>
        <rect id="path-22" x="29" y="0" width="15" height="277"></rect>
        <rect id="path-23" x="44" y="0" width="15" height="277"></rect>
        <rect id="path-24" x="58" y="0" width="15" height="277"></rect>
        <rect id="path-25" x="73" y="0" width="15" height="277"></rect>
        <rect id="path-26" x="88" y="0" width="15" height="277"></rect>
        <rect id="path-27" x="102" y="0" width="15" height="277"></rect>
        <rect id="path-28" x="117" y="0" width="15" height="277"></rect>
        <rect id="path-29" x="131" y="0" width="15" height="277"></rect>
        <rect id="path-30" x="146" y="0" width="15" height="277"></rect>
        <rect id="path-31" x="160" y="0" width="15" height="277"></rect>
        <rect id="path-32" x="175" y="0" width="15" height="277"></rect>
        <rect id="path-33" x="190" y="0" width="15" height="277"></rect>
        <rect id="path-34" x="204" y="0" width="15" height="277"></rect>
        <rect id="path-35" x="219" y="0" width="15" height="277"></rect>
        <rect id="path-36" x="233" y="0" width="15" height="277"></rect>
    </defs>
    <g id="Artboard-Copy-6" stroke="none" stroke-width="1" fill="none" fill-rule="evenodd">
        <text id="2030-Watch" font-family="Chivo-Bold, Chivo" font-size="20" font-weight="bold" letter-spacing="0.0909091011" fill="#FFFFFF">
            <tspan x="352" y="670">2030 Watch</tspan>
        </text>
        <text id="Indikatorkatalog" transform="translate(409.500000, 514.000000) rotate(90.000000) translate(-409.500000, -514.000000) " font-family="Chivo-Bold, Chivo" font-size="20" font-weight="bold" letter-spacing="0.0909091011" fill="#FFFFFF">
            <tspan x="308" y="521">INDIKATORKATALOG</tspan>
        </text>
        <g id="Group-2" transform="translate(60.000000, 167.000000)">
            <rect id="Rectangle-4" fill="#E5E5E5" x="0" y="0" width="596" height="179"></rect>
            <g id="Group">
                <g id="Rectangle-4">
                    <use fill="#F1B330" fill-rule="evenodd" xlink:href="#path-1"></use>
                    <rect stroke="#FFFFFF" stroke-width="2" x="1" y="1" width="27.1176472" height="177"></rect>
                </g>
                <g id="Rectangle-4">
                    <use fill="#F1B330" fill-rule="evenodd" xlink:href="#path-2"></use>
                    <rect stroke="#FFFFFF" stroke-width="2" x="30.1176472" y="1" width="27.1176472" height="177"></rect>
                </g>
                <g id="Rectangle-4">
                    <use fill="#F1B330" fill-rule="evenodd" xlink:href="#path-3"></use>
                    <rect stroke="#FFFFFF" stroke-width="2" x="59.2352943" y="1" width="27.1176472" height="177"></rect>
                </g>
                <g id="Rectangle-4">
                    <use fill="#F1B330" fill-rule="evenodd" xlink:href="#path-4"></use>
                    <rect stroke="#FFFFFF" stroke-width="2" x="88.3529415" y="1" width="27.1176472" height="177"></rect>
                </g>
                <g id="Rectangle-4">
                    <use fill="#F1B330" fill-rule="evenodd" xlink:href="#path-5"></use>
                    <rect stroke="#FFFFFF" stroke-width="2" x="117.470589" y="1" width="27.1176472" height="177"></rect>
                </g>
                <g id="Rectangle-4">
                    <use fill="#F1B330" fill-rule="evenodd" xlink:href="#path-6"></use>
                    <rect stroke="#FFFFFF" stroke-width="2" x="146.588236" y="1" width="27.1176472" height="177"></rect>
                </g>
                <g id="Rectangle-4">
                    <use fill="#F1B330" fill-rule="evenodd" xlink:href="#path-7"></use>
                    <rect stroke="#FFFFFF" stroke-width="2" x="175.705883" y="1" width="27.1176472" height="177"></rect>
                </g>
                <g id="Rectangle-4">
                    <use fill="#F1B330" fill-rule="evenodd" xlink:href="#path-8"></use>
                    <rect stroke="#FFFFFF" stroke-width="2" x="204.82353" y="1" width="27.1176472" height="177"></rect>
                </g>
                <g id="Rectangle-4">
                    <use fill="#F1B330" fill-rule="evenodd" xlink:href="#path-9"></use>
                    <rect stroke="#FFFFFF" stroke-width="2" x="233.941177" y="1" width="27.1176472" height="177"></rect>
                </g>
                <g id="Rectangle-4">
                    <use fill="#F1B330" fill-rule="evenodd" xlink:href="#path-10"></use>
                    <rect stroke="#FFFFFF" stroke-width="2" x="263.058825" y="1" width="27.1176472" height="177"></rect>
                </g>
                <g id="Rectangle-4">
                    <use fill="#F1B330" fill-rule="evenodd" xlink:href="#path-11"></use>
                    <rect stroke="#FFFFFF" stroke-width="2" x="292.176472" y="1" width="27.1176472" height="177"></rect>
                </g>
                <g id="Rectangle-4">
                    <use fill="#F1B330" fill-rule="evenodd" xlink:href="#path-12"></use>
                    <rect stroke="#FFFFFF" stroke-width="2" x="321.294119" y="1" width="27.1176472" height="177"></rect>
                </g>
                <g id="Rectangle-4">
                    <use fill="#F1B330" fill-rule="evenodd" xlink:href="#path-13"></use>
                    <rect stroke="#FFFFFF" stroke-width="2" x="350.411766" y="1" width="27.1176472" height="177"></rect>
                </g>
                <g id="Rectangle-4">
                    <use fill="#F1B330" fill-rule="evenodd" xlink:href="#path-14"></use>
                    <rect stroke="#FFFFFF" stroke-width="2" x="379.529413" y="1" width="27.1176472" height="177"></rect>
                </g>
                <g id="Rectangle-4">
                    <use fill="#F1B330" fill-rule="evenodd" xlink:href="#path-15"></use>
                    <rect stroke="#FFFFFF" stroke-width="2" x="408.64706" y="1" width="27.1176472" height="177"></rect>
                </g>
                <g id="Rectangle-4">
                    <use fill="#F1B330" fill-rule="evenodd" xlink:href="#path-16"></use>
                    <rect stroke="#FFFFFF" stroke-width="2" x="437.764708" y="1" width="27.1176472" height="177"></rect>
                </g>
                <g id="Rectangle-4">
                    <use fill="#F1B330" fill-rule="evenodd" xlink:href="#path-17"></use>
                    <rect stroke="#FFFFFF" stroke-width="2" x="466.882355" y="1" width="27.1176472" height="177"></rect>
                </g>
            </g>
        </g>
        <text id="Indikatoren-DNS" font-family="Chivo-Bold, Chivo" font-size="35" font-weight="bold" letter-spacing="0.159090936" fill="#F1B330">
            <tspan x="60" y="148">Indikatoren DNS</tspan>
        </text>
        <text id="SDG" font-family="Chivo-Regular, Chivo" font-size="30" font-weight="normal" letter-spacing="0.204545483" fill="#AAAAAA">
            <tspan x="160" y="409">SDG</tspan>
        </text>
        <text id="Indikatoren-2030-Wat" font-family="Chivo-Bold, Chivo" font-size="35" font-weight="bold" letter-spacing="0.0795454681" fill="#38A6F0">
            <tspan x="60" y="757">Indikatoren 2030 Watch</tspan>
        </text>
        <rect id="Rectangle-4-Copy" fill="#E5E5E5" x="60" y="437" width="596" height="277"></rect>
        <g id="Group-3" transform="translate(60.000000, 437.000000)">
            <mask id="mask-19" fill="white">
                <use xlink:href="#path-18"></use>
            </mask>
            <g id="Duplicate-control"></g>
            <g id="Rectangle-4-Copy" mask="url(#mask-19)">
                <use fill="#38A6F0" fill-rule="evenodd" xlink:href="#path-20"></use>
                <rect stroke="#FFFFFF" stroke-width="2" x="1" y="1" width="13" height="275"></rect>
            </g>
            <g id="Rectangle-4-Copy" mask="url(#mask-19)">
                <use fill="#38A6F0" fill-rule="evenodd" xlink:href="#path-21"></use>
                <rect stroke="#FFFFFF" stroke-width="2" x="16" y="1" width="13" height="275"></rect>
            </g>
            <g id="Rectangle-4-Copy" mask="url(#mask-19)">
                <use fill="#38A6F0" fill-rule="evenodd" xlink:href="#path-22"></use>
                <rect stroke="#FFFFFF" stroke-width="2" x="30" y="1" width="13" height="275"></rect>
            </g>
            <g id="Rectangle-4-Copy" mask="url(#mask-19)">
                <use fill="#38A6F0" fill-rule="evenodd" xlink:href="#path-23"></use>
                <rect stroke="#FFFFFF" stroke-width="2" x="45" y="1" width="13" height="275"></rect>
            </g>
            <g id="Rectangle-4-Copy" mask="url(#mask-19)">
                <use fill="#38A6F0" fill-rule="evenodd" xlink:href="#path-24"></use>
                <rect stroke="#FFFFFF" stroke-width="2" x="59" y="1" width="13" height="275"></rect>
            </g>
            <g id="Rectangle-4-Copy" mask="url(#mask-19)">
                <use fill="#38A6F0" fill-rule="evenodd" xlink:href="#path-25"></use>
                <rect stroke="#FFFFFF" stroke-width="2" x="74" y="1" width="13" height="275"></rect>
            </g>
            <g id="Rectangle-4-Copy" mask="url(#mask-19)">
                <use fill="#38A6F0" fill-rule="evenodd" xlink:href="#path-26"></use>
                <rect stroke="#FFFFFF" stroke-width="2" x="89" y="1" width="13" height="275"></rect>
            </g>
            <g id="Rectangle-4-Copy" mask="url(#mask-19)">
                <use fill="#38A6F0" fill-rule="evenodd" xlink:href="#path-27"></use>
                <rect stroke="#FFFFFF" stroke-width="2" x="103" y="1" width="13" height="275"></rect>
            </g>
            <g id="Rectangle-4-Copy" mask="url(#mask-19)">
                <use fill="#38A6F0" fill-rule="evenodd" xlink:href="#path-28"></use>
                <rect stroke="#FFFFFF" stroke-width="2" x="118" y="1" width="13" height="275"></rect>
            </g>
            <g id="Rectangle-4-Copy" mask="url(#mask-19)">
                <use fill="#38A6F0" fill-rule="evenodd" xlink:href="#path-29"></use>
                <rect stroke="#FFFFFF" stroke-width="2" x="132" y="1" width="13" height="275"></rect>
            </g>
            <g id="Rectangle-4-Copy" mask="url(#mask-19)">
                <use fill="#38A6F0" fill-rule="evenodd" xlink:href="#path-30"></use>
                <rect stroke="#FFFFFF" stroke-width="2" x="147" y="1" width="13" height="275"></rect>
            </g>
            <g id="Rectangle-4-Copy" mask="url(#mask-19)">
                <use fill="#38A6F0" fill-rule="evenodd" xlink:href="#path-31"></use>
                <rect stroke="#FFFFFF" stroke-width="2" x="161" y="1" width="13" height="275"></rect>
            </g>
            <g id="Rectangle-4-Copy" mask="url(#mask-19)">
                <use fill="#38A6F0" fill-rule="evenodd" xlink:href="#path-32"></use>
                <rect stroke="#FFFFFF" stroke-width="2" x="176" y="1" width="13" height="275"></rect>
            </g>
            <g id="Rectangle-4-Copy" mask="url(#mask-19)">
                <use fill="#38A6F0" fill-rule="evenodd" xlink:href="#path-33"></use>
                <rect stroke="#FFFFFF" stroke-width="2" x="191" y="1" width="13" height="275"></rect>
            </g>
            <g id="Rectangle-4-Copy" mask="url(#mask-19)">
                <use fill="#38A6F0" fill-rule="evenodd" xlink:href="#path-34"></use>
                <rect stroke="#FFFFFF" stroke-width="2" x="205" y="1" width="13" height="275"></rect>
            </g>
            <g id="Rectangle-4-Copy" mask="url(#mask-19)">
                <use fill="#38A6F0" fill-rule="evenodd" xlink:href="#path-35"></use>
                <rect stroke="#FFFFFF" stroke-width="2" x="220" y="1" width="13" height="275"></rect>
            </g>
            <g id="Rectangle-4-Copy" mask="url(#mask-19)">
                <use fill="#38A6F0" fill-rule="evenodd" xlink:href="#path-36"></use>
                <rect stroke="#FFFFFF" stroke-width="2" x="234" y="1" width="13" height="275"></rect>
            </g>
        </g>
        <g id="Page-1" transform="translate(718.000000, 227.000000)">
            <polygon id="Stroke-1" stroke-opacity="0.00784313771" stroke="#000000" stroke-width="1.33333335e-11" points="0 0 59.9999962 0 59.9999962 59.9999962 0 59.9999962"></polygon>
            <path d="M29.9999997,4.9999997 C16.1999997,4.9999997 4.9999997,16.1999997 4.9999997,29.9999997 C4.9999997,43.8000007 16.1999997,54.9999997 29.9999997,54.9999997 C43.8000007,54.9999997 54.9999997,43.8000007 54.9999997,29.9999997 C54.9999997,16.1999985 43.8000007,4.9999997 29.9999997,4.9999997 Z M24.9999985,42.4999975 L12.4999993,29.9999982 L16.0249986,26.4749987 L24.9999985,35.4249979 L43.9749976,16.4499988 L47.4999972,19.9999988 L24.9999985,42.4999975 Z" id="Fill-2" fill="#9DA82B"></path>
        </g>
        <g id="Page-1" transform="translate(748.000000, 576.000000) rotate(45.000000) translate(-748.000000, -576.000000) translate(718.000000, 546.000000)">
            <polygon id="Stroke-1" stroke-opacity="0.00784313771" stroke="#000000" stroke-width="1.33333335e-11" points="0 0 59.9999962 0 59.9999962 59.9999962 0 59.9999962"></polygon>
            <path d="M29.9999997,4.9999997 C16.1999997,4.9999997 4.9999997,16.1999997 4.9999997,29.9999997 C4.9999997,43.8000007 16.1999997,54.9999997 29.9999997,54.9999997 C43.8000007,54.9999997 54.9999997,43.8000007 54.9999997,29.9999997 C54.9999997,16.1999985 43.8000007,4.9999997 29.9999997,4.9999997 Z M42.4999974,32.4999981 L32.4999981,32.4999981 L32.4999981,42.4999974 L27.4999983,42.4999974 L27.4999983,32.4999981 L17.4999989,32.4999981 L17.4999989,27.4999983 L27.4999983,27.4999983 L27.4999983,17.499999 L32.4999981,17.499999 L32.4999981,27.4999983 L42.4999974,27.4999983 L42.4999974,32.4999981 Z" id="Fill-2" fill="#FF0000"></path>
        </g>
        <g id="Group-5" transform="translate(64.000000, 4.000000)">
            <text id="Nachhaltigkeit" font-family="Chivo-Regular, Chivo" font-size="30" font-weight="normal" letter-spacing="0.136363655" fill="#AAAAAA">
                <tspan x="188" y="61">Nachhaltigkeit</tspan>
            </text>
            <text id="+" font-family="Chivo-Regular, Chivo" font-size="30" font-weight="normal" letter-spacing="0.136363655" fill="#AAAAAA">
                <tspan x="564" y="28">+</tspan>
            </text>
            <text id="–" font-family="Chivo-Regular, Chivo" font-size="30" font-weight="normal" letter-spacing="0.136363655" fill="#AAAAAA">
                <tspan x="0" y="28">–</tspan>
            </text>
            <path d="M0,51 L162.5,51" id="Path-5" stroke="#AAAAAA"></path>
            <g id="Group-4" transform="translate(421.000000, 46.000000)" stroke="#AAAAAA">
                <path d="M0,6 L161.5,6" id="Path-5-Copy"></path>
                <polyline id="Path-6" points="150 0 161.621208 6.11192376 150 11"></polyline>
            </g>
        </g>
        <path d="M187,362 L187,373" id="Path-4" stroke="#AAAAAA" stroke-width="2"></path>
        <path d="M187,421 L187,432" id="Path-4-Copy" stroke="#AAAAAA" stroke-width="2"></path>
    </g>
</svg>