<?xml version="1.0" encoding="utf-8"?>
<!-- Generator: Adobe Illustrator 21.0.0, SVG Export Plug-In . SVG Version: 6.00 Build 0)  -->
<svg version="1.1" id="Ebene_1" xmlns="http://www.w3.org/2000/svg" xmlns:xlink="http://www.w3.org/1999/xlink" x="0px" y="0px"
	 viewBox="0 0 595.3 303.3" style="enable-background:new 0 0 595.3 303.3;" xml:space="preserve">
<style type="text/css">
	.st0{fill:#EC6608;}
</style>
<g>
	<path class="st0" d="M470.9,121.4c0-57.4-21.5-76.6-79.9-76.6c-61.7,0-85.5,17.8-85.5,80.9c0,65.5,39.1,79.9,84.4,79.9
		C436.6,205.6,470.9,192.6,470.9,121.4 M389.5,90.9c15.6,0,26.2,8.1,26.2,31c0,13.5-1.6,35.3-25.9,35.3c-9.3,0-28.9,0-28.9-33.3
		C360.8,99.5,371.2,90.9,389.5,90.9"/>
	<g>
		<path d="M12,299.4h18.5V255h11.1v-12h-12v-2.5c0-5.1,3.6-5.7,7.8-5.7c1.6,0,2.5,0.2,4.3,0.4l1.5-12.6c-3-0.5-6.7-0.9-9.7-0.9
			c-15.7,0-21.4,5-21.4,21.2H5.3v12H12V299.4z"/>
		<path d="M104.2,299.4V243H85.8v30.2c0,10-6.1,12.6-10.1,12.6c-5.9,0-9.1-2.6-9.1-10.1V243H48.1v33.9c0,14.8,4.7,24.1,20.9,24.1
			c6.5,0,13.7-3.6,17.2-9.3h0.2v7.7H104.2z"/>
		<rect x="79.9" y="221.9" width="16.3" height="13.6"/>
		<rect x="55.6" y="221.9" width="16.3" height="13.6"/>
		<path d="M115.5,243v56.4h18.5v-27.9c0-7.1,6.5-12.9,12.6-12.9c2.5,0,4.6,0.3,5.7,0.5l2.1-17.8c-1.4-0.3-4-0.2-5.4-0.2
			c-6.6,0-12.6,4.6-15.4,11.7h-0.2V243H115.5z"/>
		<path d="M204.3,301c6.5,0,11.9-2.8,15.5-8.1h0.2v6.5h17.6v-77.5h-18.5v27.2H219c-3.8-5.1-9.1-7.7-16.1-7.7
			c-16,0-23.8,13.9-23.8,28.6C179.1,285.8,186.6,301,204.3,301z M208.5,255.5c8,0,11,7.5,11,15.6c0,7.2-2,15.7-11,15.7
			c-8.5,0-12.2-8.6-12.2-16.3C196.2,263.5,200,255.5,208.5,255.5z"/>
		<polygon points="267.3,243 248.8,243 248.8,268.4 248.8,299.4 267.3,299.4 		"/>
		<polygon points="267.3,221.9 248.8,221.9 248.8,228.6 248.8,236 267.3,236 		"/>
		<path d="M275.5,271.1c0,18.9,12.5,30,30.8,30c12.6,0,24.6-5.6,28-18.7h-17.3c-1.7,4.1-6.1,6.2-10.5,6.2c-7.8,0-12.3-5.1-12.6-12.8
			h41.4c0.9-19.1-9.2-34.3-29.4-34.3C289.3,241.4,275.5,253.8,275.5,271.1z M305.9,253.9c6.2,0,10.6,5.2,11,11.5H294
			C295.1,258.6,299.4,253.9,305.9,253.9z"/>
		<polygon points="398.2,299.4 408.9,246 409.1,246 419.7,299.4 439.9,299.4 461.3,221.9 441.1,221.9 430.2,278.6 429.9,278.6 
			418.5,221.9 399.5,221.9 388.1,278.6 387.9,278.6 377,221.9 356.8,221.9 377.7,299.4 		"/>
		<path d="M488.6,301c12.6,0,24.7-5.6,28-18.7h-17.3c-1.7,4.1-6.1,6.2-10.5,6.2c-7.8,0-12.3-5.1-12.6-12.8h41.4
			c0.9-19.1-9.2-34.3-29.4-34.3c-16.6,0-30.4,12.4-30.4,29.6C457.7,289.9,470.2,301,488.6,301z M488.2,253.9c6.2,0,10.6,5.2,11,11.5
			h-22.9C477.3,258.6,481.6,253.9,488.2,253.9z"/>
		<polygon points="526.3,299.4 544.7,299.4 544.7,221.9 526.3,221.9 526.3,261.9 		"/>
		<path d="M590,255v-12h-11.4v-17H568c0,0-3.1,13.9-17.2,17v12h9.3v25.1c0,15.3,4,19.9,19.8,19.9c3.4,0,6.7-0.4,10.1-0.5v-13.6
			c-1.6,0-3.2,0.2-4.8,0.2c-4,0-6.6-1-6.6-5.4V255H590z"/>
		<path d="M184.3,140.6c0-29.2-12.6-45.6-32.5-49.5c18-5.1,24.5-18.9,24.5-39c0-27.6-8.8-49.8-56.8-49.8H10.9V201h119.1
			C165.1,201,184.3,180.4,184.3,140.6z M72.2,45.8H101c12.5,0,17.4,4.1,17.4,15.4c0,14.4-8.1,18.5-20.9,18.5H72.2V45.8z
			 M105.1,156.6H72.2v-39.9h31.5c14.5,0,21.4,6.9,21.4,19.5C125.1,152.7,117.9,156.6,105.1,156.6z"/>
		<path d="M254.8,158c0-40.9,7.2-47.5,37.8-47.5l6.8-57.6c-16.6-2.2-41.2,0.7-51.2,27.4l-0.3-23.1h-48.2v144.4h55.1V158z"/>
		<path d="M500.3,143c0,53.5,28,61.1,51.4,61.1c11.7,0,29.4-0.7,38.3-1.4v-42.5l-15.5-0.1c-13.9,0-17-6.8-17-28.9v-30.9H590V56.6
			h-32.5v-44h-39.1c-2.1,20.8-9.5,44-38.7,44v43.7h20.5V143z"/>
	</g>
</g>
</svg>
